<?xml version="1.0" encoding="UTF-8"?>
<svg id="Layer_1" xmlns="http://www.w3.org/2000/svg" version="1.1" viewBox="0 0 319.9 416.1">
  <!-- Generator: Adobe Illustrator 29.8.3, SVG Export Plug-In . SVG Version: 2.1.1 Build 3)  -->
  <defs>
    <style>
      .st0 {
        fill: #0f8;
      }

      .st0, .st1 {
        stroke: #00375e;
        stroke-miterlimit: 10;
        stroke-width: .2px;
      }

      .st1 {
        fill: #1b1b1b;
      }
    </style>
  </defs>
  <path class="st0" d="M.2,111h60.9c14,24.8,28,49.7,42,74.5C159.2,124.1,215.2,62.5,271.2,1c-21.3,35.9-42.6,71.8-63.9,107.7,37.5.4,74.9.8,112.4,1.2-8.5,16-17,32-25.4,47.9-34.5-.2-69-.4-103.5-.6-29.4,46.3-58.8,92.7-88.2,139C68.4,234.5,34.3,172.8.2,111Z"/>
  <path class="st0" d="M196.6,181.6h82.4c-7.6,14-15.1,28-22.7,42h-85.7c8.7-14,17.4-28,26.1-42h0Z"/>
  <path class="st1" d="M116.3,315.2c14-21.9,28-43.7,42-65.6,6.7,12.3,13.4,24.6,20.2,37,9-12.3,17.9-24.6,26.9-37h38.7c-13.4,25.8-26.9,51.6-40.3,77.3-29.1,29.7-58.3,59.4-87.4,89.1,20-30.3,40.1-60.5,60.1-90.8h0c5.7-8.7,11.5-17.4,17.2-26l-27.8,21.9c-3.1-7.8-6.1-15.7-9.2-23.5-8.7,14.6-17.4,29.1-26.1,43.7-4.8-8.7-9.5-17.4-14.3-26h0Z"/>
</svg>